{"title":"Seven Psychopaths 2012 DvDScr XviD New Source Sample Included ~ ","uid":7996671,"size":744639196,"categoryP":"video","categoryS":"movies","magnet":"?xt=urn:btih:70e53aa4192da77eb3355db761b5e5132ed3acde&amp;dn=Seven+Psychopaths+2012+DvDScr+XviD+New+Source+Sample+Included+%7E+&amp;tr=udp%3A%2F%2Ftracker.openbittorrent.com%3A80&amp;tr=udp%3A%2F%2Fopen.demonii.com%3A1337&amp;tr=udp%3A%2F%2Ftracker.coppersurfer.tk%3A6969&amp;tr=udp%3A%2F%2Fexodus.desync.com%3A6969","seeders":1,"leechers":0,"uploader":"basicssom","files":3,"time":1357639143,"description":"Seven Psychopaths 2012 Movies DvDScr XviD New Source Sample Included ~ rDX\n\nScreen Shots :\n &lt;a href=&quot;\nhttp://myimghosting.serveftp.com/SevenPsychopaths.html&quot; rel=&quot;nofollow&quot; target=&quot;_NEW&quot;&gt;\nhttp://myimghosting.serveftp.com/SevenPsychopaths.html&lt;/a&gt;\n &lt;a href=&quot;\nhttp://myimghost.cwahi.net/SevenPsychopaths.html&quot; rel=&quot;nofollow&quot; target=&quot;_NEW&quot;&gt;\nhttp://myimghost.cwahi.net/SevenPsychopaths.html&lt;/a&gt;\n\nFormat                                   : AVI\nFormat/Info                              : Audio Video Interleave\nFile size                                : 694 MiB\nDuration                                 : 1h 45mn\nOverall bit rate                         : 917 Kbps\nWriting library                          : MPlayer\n\nVideo\nID                                       : 0\nFormat                                   : MPEG-4 Visual\nFormat profile                           : Advanced Simple@L5\nFormat settings, BVOP                    : 4\nFormat settings, QPel                    : No\nFormat settings, GMC                     : No warppoints\nFormat settings, Matrix                  : Default (H.263)\nMuxing mode                              : Packed bitstream\nCodec ID                                 : XVID\nCodec ID/Hint                            : XviD\nDuration                                 : 1h 45mn\nBit rate                                 : 782 Kbps\nWidth                                    : 656 pixels\nHeight                                   : 272 pixels\nDisplay aspect ratio                     : 2.40:1\nFrame rate                               : 29.970 fps\nColor space                              : YUV\nChroma subsampling                       : 4:2:0\nBit depth                                : 8 bits\nScan type                                : Progressive\nCompression mode                         : Lossy\nBits/(Pixel*Frame)                       : 0.146\nStream size                              : 593 MiB (85%)\nWriting library                          : XviD 64\n\nAudio\nID                                       : 1\nFormat                                   : MPEG Audio\nFormat version                           : Version 1\nFormat profile                           : Layer 3\nCodec ID                                 : 55\nCodec ID/Hint                            : MP3\nDuration                                 : 1h 45mn\nBit rate mode                            : Constant\nBit rate                                 : 128 Kbps\nChannel(s)                               : 2 channels\nSampling rate                            : 48.0 KHz\nCompression mode                         : Lossy\nStream size                              : 97.0 MiB (14%)\nAlignment                                : Split accross interleaves\nInterleave, duration                     : 500 ms (14.98 video frames)\nInterleave, preload duration             : 500 ms\nWriting library                          : LAMELAME_MAJOR_VERSI","torrent":{"xt":"urn:btih:70e53aa4192da77eb3355db761b5e5132ed3acde","amp;dn":"Seven+Psychopaths+2012+DvDScr+XviD+New+Source+Sample+Included+%7E+","amp;tr":["udp%3A%2F%2Ftracker.openbittorrent.com%3A80","udp%3A%2F%2Fopen.demonii.com%3A1337","udp%3A%2F%2Ftracker.coppersurfer.tk%3A6969","udp%3A%2F%2Fexodus.desync.com%3A6969"],"infoHash":"70e53aa4192da77eb3355db761b5e5132ed3acde","infoHashBuffer":{"type":"Buffer","data":[112,229,58,164,25,45,167,126,179,53,93,183,97,181,229,19,46,211,172,222]},"announce":[],"urlList":[]}}